name C:\Users\r0593348\3dpredictsim\Results\MidTarsalJoint\Fal_s1_bCst_PF_Natali2010_ls150_MT_k300_MTP_T5_ig21.mot
datacolumns 128
datarows 4
range 1.69798969 1.73194948
endheader
time	pelvis_tilt	pelvis_list	pelvis_rotation	pelvis_tx	pelvis_ty	pelvis_tz	hip_flexion_l	hip_adduction_l	hip_rotation_l	hip_flexion_r	hip_adduction_r	hip_rotation_r	knee_angle_l	knee_angle_r	ankle_angle_l	ankle_angle_r	subtalar_angle_l	subtalar_angle_r	mtj_angle_l	mtj_angle_r	mtp_angle_l	mtp_angle_r	lumbar_extension	lumbar_bending	lumbar_rotation	arm_flex_l	arm_add_l	arm_rot_l	arm_flex_r	arm_add_r	arm_rot_r	elbow_flex_l	elbow_flex_r	pro_sup_l	pro_sup_r	glut_med1_l/activation	glut_med2_l/activation	glut_med3_l/activation	glut_min1_l/activation	glut_min2_l/activation	glut_min3_l/activation	semimem_l/activation	semiten_l/activation	bifemlh_l/activation	bifemsh_l/activation	sar_l/activation	add_long_l/activation	add_brev_l/activation	add_mag1_l/activation	add_mag2_l/activation	add_mag3_l/activation	tfl_l/activation	pect_l/activation	grac_l/activation	glut_max1_l/activation	glut_max2_l/activation	glut_max3_l/activation	iliacus_l/activation	psoas_l/activation	quad_fem_l/activation	gem_l/activation	peri_l/activation	rect_fem_l/activation	vas_med_l/activation	vas_int_l/activation	vas_lat_l/activation	med_gas_l/activation	lat_gas_l/activation	soleus_l/activation	tib_post_l/activation	flex_dig_l/activation	flex_hal_l/activation	tib_ant_l/activation	per_brev_l/activation	per_long_l/activation	per_tert_l/activation	ext_dig_l/activation	ext_hal_l/activation	ercspn_l/activation	intobl_l/activation	extobl_l/activation	glut_med1_r/activation	glut_med2_r/activation	glut_med3_r/activation	glut_min1_r/activation	glut_min2_r/activation	glut_min3_r/activation	semimem_r/activation	semiten_r/activation	bifemlh_r/activation	bifemsh_r/activation	sar_r/activation	add_long_r/activation	add_brev_r/activation	add_mag1_r/activation	add_mag2_r/activation	add_mag3_r/activation	tfl_r/activation	pect_r/activation	grac_r/activation	glut_max1_r/activation	glut_max2_r/activation	glut_max3_r/activation	iliacus_r/activation	psoas_r/activation	quad_fem_r/activation	gem_r/activation	peri_r/activation	rect_fem_r/activation	vas_med_r/activation	vas_int_r/activation	vas_lat_r/activation	med_gas_r/activation	lat_gas_r/activation	soleus_r/activation	tib_post_r/activation	flex_dig_r/activation	flex_hal_r/activation	tib_ant_r/activation	per_brev_r/activation	per_long_r/activation	per_tert_r/activation	ext_dig_r/activation	ext_hal_r/activation	ercspn_r/activation	intobl_r/activation	extobl_r/activation	
          1.69798969	         -2.92940867	          2.15536576	         -5.50587252	          2.12248711	          0.91898667	          0.00185879	         28.78071504	          3.72361865	         -2.02217790	        -16.63266928	         -1.13206062	          6.51299890	        -11.15957814	         -9.33922203	          5.08164983	         -2.53625264	         -5.08530600	          8.90271758	         -0.18105502	          3.87926021	          0.71013590	         14.53315133	         -1.87192687	         -0.42379923	          2.02667791	         -5.98770875	        -13.48257036	          5.49172946	          4.48322381	        -13.45694239	         15.85491758	         17.38929001	         35.57110459	         86.51662706	         86.51662706	          0.05043053	          0.05000191	          0.05000063	          0.05943377	          0.05822820	          0.05000108	          0.17983194	          0.05000102	          0.06189978	          0.05000087	          0.05000545	          0.11865078	          0.24793176	          0.23988096	          0.16567931	          0.09964425	          0.05000091	          0.07064756	          0.09483971	          0.05000665	          0.05944237	          0.11671257	          0.07064500	          0.06689687	          0.55126435	          0.17220267	          0.16105036	          0.08397367	          0.20078882	          0.19968438	          0.17182140	          0.05000007	          0.05000015	          0.05000003	          0.05000080	          0.05000506	          0.05000468	          0.53535853	          0.25153887	          0.18523353	          0.20601845	          0.48378583	          0.05943553	          0.05000022	          0.11115174	          0.09317438	          0.27325571	          0.08679051	          0.06785069	          0.26479693	          0.17724863	          0.09892947	          0.05001061	          0.05000224	          0.05000273	          0.05098690	          0.09867227	          0.10139772	          0.07954003	          0.05086991	          0.05002269	          0.05001632	          0.27901487	          0.07953656	          0.05001970	          0.05000975	          0.05000754	          0.05000665	          0.34561278	          0.53803551	          0.05000376	          0.05103345	          0.05943351	          0.19532636	          0.05000452	          0.14797185	          0.13024023	          0.25277190	          0.34506158	          0.30680612	          0.24850332	          0.22984611	          0.30228887	          0.05000016	          0.05000220	          0.12429710	          0.05000066	          0.05000018	          0.05000080	          0.05000025	          0.07275675	          0.05650692	
          1.70930962	         -2.92499082	          2.24645535	         -5.75477316	          2.13974579	          0.91816065	          0.00167374	         28.05849272	          4.02936592	         -1.77855488	        -16.51975456	         -1.43615145	          6.30896864	        -11.56763246	        -11.19964378	          4.43534337	         -3.17231929	         -5.49055386	          9.85994250	         -0.34028896	          2.91512329	          0.70159364	         16.34813420	         -1.66107272	         -0.63423553	          2.09179466	         -6.87461562	        -13.48226112	          5.26732168	          4.15334122	        -13.46111129	         16.15220269	         17.03167856	         36.68859310	         86.51662706	         86.51662706	          0.23070493	          0.05000059	          0.14128729	          0.05000090	          0.05000055	          0.15607783	          0.16912641	          0.09070873	          0.07705006	          0.05000102	          0.05000396	          0.09981883	          0.20858052	          0.20180777	          0.13938377	          0.10886027	          0.05000281	          0.05944138	          0.08078922	          0.05000212	          0.05000965	          0.09818849	          0.05943283	          0.05914716	          0.46376759	          0.14487089	          0.14798608	          0.07064538	          0.16891971	          0.16799057	          0.14454998	          0.05318781	          0.05434085	          0.05251998	          0.05000272	          0.05000392	          0.05000330	          0.45038811	          0.27171946	          0.15583407	          0.17331935	          0.55788378	          0.05000196	          0.05000007	          0.11864987	          0.07838574	          0.34037356	          0.07301520	          0.05708165	          0.22276909	          0.14911598	          0.08322755	          0.05001106	          0.05000356	          0.05000249	          0.05000067	          0.08301199	          0.13181381	          0.08755110	          0.05943729	          0.05943601	          0.05943347	          0.23473171	          0.08200918	          0.05067188	          0.05003284	          0.05002078	          0.05942894	          0.29075798	          0.52978154	          0.05685810	          0.05000470	          0.05000075	          0.16432422	          0.11095429	          0.12449098	          0.10957223	          0.21265186	          0.29029334	          0.25810975	          0.20906108	          0.19336563	          0.25431021	          0.05000013	          0.05000171	          0.15132261	          0.05000061	          0.05000031	          0.05000067	          0.05000130	          0.06120880	          0.05943381	
          1.72062955	         -2.91828458	          2.34013962	         -5.96935308	          2.15718944	          0.91737776	          0.00148765	         27.21764454	          4.28020154	         -1.52362818	        -16.32827921	         -1.73765301	          6.10379167	        -11.94886972	        -13.16868716	          3.84243395	         -3.95431952	         -5.89954772	         10.77077398	         -0.27925072	          1.84972461	          0.72097723	         18.18319778	         -1.44312968	         -0.85646454	          2.14736732	         -7.75652285	        -13.48668720	          5.09837414	          3.76340446	        -13.46676970	         16.38824434	         16.69657125	         37.78032202	         86.51662706	         86.51662706	          0.30753544	          0.26571740	          0.30033590	          0.15488886	          0.20502863	          0.16246692	          0.14228270	          0.07631218	          0.06482089	          0.07687813	          0.05002738	          0.08397569	          0.17547469	          0.16977732	          0.11726160	          0.12989278	          0.05000273	          0.05000847	          0.06796782	          0.19348602	          0.14457863	          0.10025575	          0.05000043	          0.05000043	          0.39015847	          0.12187756	          0.12450642	          0.05943270	          0.14211149	          0.14135594	          0.12160937	          0.05000137	          0.05000271	          0.05000028	          0.05000033	          0.05000099	          0.05000131	          0.57132061	          0.33467571	          0.17918161	          0.49944068	          0.52722169	          0.23463212	          0.07040879	          0.09981851	          0.06594436	          0.30598282	          0.06142633	          0.05000049	          0.34113865	          0.12544867	          0.07001793	          0.05000902	          0.05000087	          0.05000074	          0.05000171	          0.07022316	          0.11089696	          0.07365547	          0.05000429	          0.05000537	          0.05000227	          0.22045604	          0.06900173	          0.05000272	          0.05000623	          0.05000361	          0.05000232	          0.24460931	          0.49260388	          0.05000048	          0.05000325	          0.05000207	          0.13824306	          0.09334587	          0.12397424	          0.11854961	          0.17889968	          0.24421791	          0.21714247	          0.17587899	          0.16267505	          0.21394638	          0.06480870	          0.10226654	          0.15021505	          0.05000252	          0.10364298	          0.05000711	          0.06433179	          0.05149373	          0.05000054	
          1.73194948	         -2.90947852	          2.42347347	         -6.14900991	          2.17461853	          0.91667629	          0.00126640	         26.37734386	          4.52608190	         -1.27667435	        -16.02217859	         -2.02116350	          5.91312732	        -12.35189350	        -15.28561603	          3.32170532	         -4.87350564	         -6.31466496	         11.63167572	         -0.33096839	          0.71052655	          0.73456654	         19.89081439	         -1.23585680	         -1.07391414	          2.19457570	         -8.59187249	        -13.48891552	          4.98994122	          3.35437666	        -13.48025996	         16.59340760	         16.36124653	         38.81354905	         86.51662706	         86.51662706	          0.39555946	          0.36072277	          0.41594764	          0.20906809	          0.17249006	          0.28015791	          0.11970000	          0.09055332	          0.07317712	          0.06467650	          0.05000157	          0.07064758	          0.15628655	          0.20490588	          0.19962950	          0.16066899	          0.05000121	          0.05942356	          0.10026523	          0.24541784	          0.18602660	          0.15617515	          0.05000082	          0.05000066	          0.32823259	          0.10253370	          0.21329723	          0.05000030	          0.18885316	          0.19693252	          0.15493060	          0.05000015	          0.05000030	          0.05000005	          0.05000014	          0.05000107	          0.05000094	          0.64267270	          0.28155601	          0.15074192	          0.48789167	          0.58529102	          0.27355916	          0.09212202	          0.08397536	          0.05547771	          0.27700418	          0.05167688	          0.05000025	          0.28699436	          0.10553774	          0.05890496	          0.05000411	          0.05000053	          0.05000052	          0.05000038	          0.05907895	          0.14503687	          0.12195711	          0.05001230	          0.05001453	          0.06838926	          0.18546887	          0.05943945	          0.05000168	          0.05000678	          0.05000450	          0.05000324	          0.20578502	          0.45142706	          0.05000047	          0.05000148	          0.05000040	          0.11630115	          0.11311252	          0.10430587	          0.09973533	          0.15050466	          0.20545559	          0.18267753	          0.14796357	          0.13685570	          0.17998912	          0.13059440	          0.13353098	          0.14777960	          0.05002179	          0.17386909	          0.11863974	          0.08899261	          0.05000007	          0.05000019	
